<?xml version="1.0" encoding="UTF-8" standalone="no"?> 
<svg width="262" height="756" viewBox="0 0 69.320833 200.025" version="1.1" id="street-lammp-svg" xmlns:xlink="http://www.w3.org/1999/xlink" xmlns="http://www.w3.org/2000/svg" xmlns:svg="http://www.w3.org/2000/svg" xmlns:rdf="http://www.w3.org/1999/02/22-rdf-syntax-ns#" xmlns:cc="http://creativecommons.org/ns#" xmlns:dc="http://purl.org/dc/elements/1.1/"> 
<title id="image-title">Street LAMMP Logo</title> 
<defs id="defs2"> 
<linearGradient id="linear0" gradientUnits="userSpaceOnUse" x1="-0.0094865598" y1="0" x2="1.00967" y2="0" gradientTransform="matrix(-0.250125,25.512733,-25.512733,-0.250125,60.958725,33.998794)"> 
<stop offset="0" style="stop-color:rgb(92.941284%,10.980225%,14.117432%);stop-opacity:1;" id="stop124" /> 
<stop offset="0.0117188" style="stop-color:rgb(92.941284%,11.764526%,14.117432%);stop-opacity:1;" id="stop128" /> 
<stop offset="0.0195312" style="stop-color:rgb(92.941284%,13.33313%,14.117432%);stop-opacity:1;" id="stop132" /> 
<stop offset="0.0273438" style="stop-color:rgb(93.333435%,15.293884%,14.117432%);stop-opacity:1;" id="stop136" /> 
<stop offset="0.0351562" style="stop-color:rgb(93.333435%,16.470337%,14.117432%);stop-opacity:1;" id="stop140" /> 
<stop offset="0.0429688" style="stop-color:rgb(93.333435%,18.431091%,14.117432%);stop-opacity:1;" id="stop144" /> 
<stop offset="0.0507812" style="stop-color:rgb(93.333435%,19.215393%,13.725281%);stop-opacity:1;" id="stop148" /> 
<stop offset="0.0585938" style="stop-color:rgb(93.333435%,20.783997%,13.725281%);stop-opacity:1;" id="stop152" /> 
<stop offset="0.0664062" style="stop-color:rgb(93.725586%,22.3526%,13.725281%);stop-opacity:1;" id="stop156" /> 
<stop offset="0.0742188" style="stop-color:rgb(93.725586%,23.529053%,13.725281%);stop-opacity:1;" id="stop160" /> 
<stop offset="0.0820312" style="stop-color:rgb(93.725586%,24.705505%,13.725281%);stop-opacity:1;" id="stop164" /> 
<stop offset="0.0898438" style="stop-color:rgb(93.725586%,25.489807%,13.725281%);stop-opacity:1;" id="stop168" /> 
<stop offset="0.0976562" style="stop-color:rgb(93.725586%,26.66626%,13.725281%);stop-opacity:1;" id="stop172" /> 
<stop offset="0.105469" style="stop-color:rgb(93.725586%,27.450562%,13.725281%);stop-opacity:1;" id="stop176" /> 
<stop offset="0.113281" style="stop-color:rgb(94.117737%,29.019165%,13.725281%);stop-opacity:1;" id="stop180" /> 
<stop offset="0.117188" style="stop-color:rgb(94.117737%,29.411316%,13.33313%);stop-opacity:1;" id="stop182" /> 
<stop offset="0.125" style="stop-color:rgb(94.117737%,30.587769%,13.33313%);stop-opacity:1;" id="stop186" /> 
<stop offset="0.132813" style="stop-color:rgb(94.117737%,31.37207%,13.33313%);stop-opacity:1;" id="stop190" /> 
<stop offset="0.140625" style="stop-color:rgb(94.117737%,32.548523%,13.33313%);stop-opacity:1;" id="stop194" /> 
<stop offset="0.148438" style="stop-color:rgb(94.117737%,33.332825%,13.33313%);stop-opacity:1;" id="stop198" /> 
<stop offset="0.152344" style="stop-color:rgb(94.509888%,33.724976%,13.33313%);stop-opacity:1;" id="stop200" /> 
<stop offset="0.160156" style="stop-color:rgb(94.509888%,34.509277%,13.33313%);stop-opacity:1;" id="stop204" /> 
<stop offset="0.167969" style="stop-color:rgb(94.509888%,35.68573%,13.33313%);stop-opacity:1;" id="stop208" /> 
<stop offset="0.175781" style="stop-color:rgb(94.509888%,36.470032%,13.33313%);stop-opacity:1;" id="stop212" /> 
<stop offset="0.183594" style="stop-color:rgb(94.509888%,37.254333%,13.33313%);stop-opacity:1;" id="stop216" /> 
<stop offset="0.191406" style="stop-color:rgb(94.902039%,38.038635%,13.33313%);stop-opacity:1;" id="stop220" /> 
<stop offset="0.199219" style="stop-color:rgb(94.902039%,39.215088%,12.940979%);stop-opacity:1;" id="stop224" /> 
<stop offset="0.207031" style="stop-color:rgb(94.902039%,40.391541%,12.940979%);stop-opacity:1;" id="stop228" /> 
<stop offset="0.214844" style="stop-color:rgb(95.294189%,42.352295%,12.940979%);stop-opacity:1;" id="stop232" /> 
<stop offset="0.222656" style="stop-color:rgb(95.294189%,44.313049%,12.940979%);stop-opacity:1;" id="stop236" /> 
<stop offset="0.230469" style="stop-color:rgb(95.68634%,46.273804%,12.940979%);stop-opacity:1;" id="stop240" /> 
<stop offset="0.238281" style="stop-color:rgb(95.68634%,47.842407%,12.940979%);stop-opacity:1;" id="stop244" /> 
<stop offset="0.246094" style="stop-color:rgb(96.078491%,49.803162%,12.940979%);stop-opacity:1;" id="stop248" /> 
<stop offset="0.253906" style="stop-color:rgb(96.078491%,51.765442%,12.940979%);stop-opacity:1;" id="stop252" /> 
<stop offset="0.261719" style="stop-color:rgb(96.470642%,53.334045%,12.940979%);stop-opacity:1;" id="stop256" /> 
<stop offset="0.269531" style="stop-color:rgb(96.862793%,55.2948%,12.940979%);stop-opacity:1;" id="stop260" /> 
<stop offset="0.277344" style="stop-color:rgb(96.862793%,56.863403%,12.940979%);stop-opacity:1;" id="stop264" /> 
<stop offset="0.285156" style="stop-color:rgb(97.254944%,58.824158%,12.940979%);stop-opacity:1;" id="stop268" /> 
<stop offset="0.292969" style="stop-color:rgb(97.647095%,60.784912%,12.940979%);stop-opacity:1;" id="stop272" /> 
<stop offset="0.300781" style="stop-color:rgb(97.647095%,62.353516%,12.548828%);stop-opacity:1;" id="stop276" /> 
<stop offset="0.308594" style="stop-color:rgb(98.039246%,64.31427%,12.548828%);stop-opacity:1;" id="stop280" /> 
<stop offset="0.316406" style="stop-color:rgb(98.431396%,66.275024%,12.548828%);stop-opacity:1;" id="stop284" /> 
<stop offset="0.320312" style="stop-color:rgb(98.431396%,67.451477%,12.156677%);stop-opacity:1;" id="stop286" /> 
<stop offset="0.328125" style="stop-color:rgb(98.823547%,69.020081%,12.548828%);stop-opacity:1;" id="stop290" /> 
<stop offset="0.335937" style="stop-color:rgb(99.215698%,70.980835%,11.764526%);stop-opacity:1;" id="stop294" /> 
<stop offset="0.34375" style="stop-color:rgb(99.215698%,72.941589%,11.764526%);stop-opacity:1;" id="stop298" /> 
<stop offset="0.351563" style="stop-color:rgb(99.607849%,74.902344%,11.372375%);stop-opacity:1;" id="stop302" /> 
<stop offset="0.359375" style="stop-color:rgb(100%,76.863098%,11.372375%);stop-opacity:1;" id="stop306" /> 
<stop offset="0.367188" style="stop-color:rgb(100%,78.431702%,11.372375%);stop-opacity:1;" id="stop310" /> 
<stop offset="0.375" style="stop-color:rgb(100%,80.392456%,10.588074%);stop-opacity:1;" id="stop314" /> 
<stop offset="0.382812" style="stop-color:rgb(100%,82.35321%,10.588074%);stop-opacity:1;" id="stop318" /> 
<stop offset="0.390625" style="stop-color:rgb(100%,84.313965%,9.803772%);stop-opacity:1;" id="stop322" /> 
<stop offset="0.398438" style="stop-color:rgb(100%,86.274719%,9.411621%);stop-opacity:1;" id="stop326" /> 
<stop offset="0.40625" style="stop-color:rgb(99.215698%,86.274719%,10.588074%);stop-opacity:1;" id="stop330" /> 
<stop offset="0.414062" style="stop-color:rgb(96.078491%,85.098267%,12.940979%);stop-opacity:1;" id="stop334" /> 
<stop offset="0.421875" style="stop-color:rgb(93.333435%,83.921814%,14.117432%);stop-opacity:1;" id="stop338" /> 
<stop offset="0.429687" style="stop-color:rgb(90.196228%,82.745361%,16.078186%);stop-opacity:1;" id="stop342" /> 
<stop offset="0.4375" style="stop-color:rgb(87.451172%,81.96106%,16.862488%);stop-opacity:1;" id="stop346" /> 
<stop offset="0.445313" style="stop-color:rgb(84.313965%,80.784607%,18.431091%);stop-opacity:1;" id="stop350" /> 
<stop offset="0.453125" style="stop-color:rgb(81.176758%,79.608154%,19.215393%);stop-opacity:1;" id="stop354" /> 
<stop offset="0.460938" style="stop-color:rgb(78.431702%,78.823853%,20.391846%);stop-opacity:1;" id="stop358" /> 
<stop offset="0.46875" style="stop-color:rgb(75.294495%,77.6474%,21.176147%);stop-opacity:1;" id="stop362" /> 
<stop offset="0.476562" style="stop-color:rgb(72.157288%,76.863098%,22.3526%);stop-opacity:1;" id="stop366" /> 
<stop offset="0.484375" style="stop-color:rgb(69.412231%,75.686646%,22.744751%);stop-opacity:1;" id="stop370" /> 
<stop offset="0.492188" style="stop-color:rgb(66.275024%,74.902344%,23.529053%);stop-opacity:1;" id="stop374" /> 
<stop offset="0.5" style="stop-color:rgb(63.137817%,73.725891%,23.921204%);stop-opacity:1;" id="stop378" /> 
<stop offset="0.507813" style="stop-color:rgb(60.00061%,72.941589%,24.705505%);stop-opacity:1;" id="stop382" /> 
<stop offset="0.515625" style="stop-color:rgb(56.471252%,71.765137%,25.097656%);stop-opacity:1;" id="stop386" /> 
<stop offset="0.523438" style="stop-color:rgb(53.726196%,70.980835%,25.881958%);stop-opacity:1;" id="stop390" /> 
<stop offset="0.53125" style="stop-color:rgb(50.196838%,70.196533%,26.274109%);stop-opacity:1;" id="stop394" /> 
<stop offset="0.539063" style="stop-color:rgb(46.665955%,69.412231%,26.66626%);stop-opacity:1;" id="stop398" /> 
<stop offset="0.546875" style="stop-color:rgb(43.136597%,68.62793%,27.058411%);stop-opacity:1;" id="stop402" /> 
<stop offset="0.554688" style="stop-color:rgb(39.215088%,67.843628%,27.450562%);stop-opacity:1;" id="stop406" /> 
<stop offset="0.5625" style="stop-color:rgb(34.901428%,66.667175%,27.842712%);stop-opacity:1;" id="stop410" /> 
<stop offset="0.570312" style="stop-color:rgb(30.587769%,65.882874%,28.234863%);stop-opacity:1;" id="stop414" /> 
<stop offset="0.578125" style="stop-color:rgb(24.705505%,65.098572%,28.627014%);stop-opacity:1;" id="stop418" /> 
<stop offset="0.585938" style="stop-color:rgb(18.431091%,64.706421%,29.019165%);stop-opacity:1;" id="stop422" /> 
<stop offset="0.59375" style="stop-color:rgb(6.274414%,63.922119%,29.019165%);stop-opacity:1;" id="stop426" /> 
<stop offset="0.601562" style="stop-color:rgb(0%,62.745667%,30.195618%);stop-opacity:1;" id="stop430" /> 
<stop offset="0.609375" style="stop-color:rgb(0%,61.177063%,31.764221%);stop-opacity:1;" id="stop434" /> 
<stop offset="0.617188" style="stop-color:rgb(0%,59.608459%,33.724976%);stop-opacity:1;" id="stop438" /> 
<stop offset="0.625" style="stop-color:rgb(0%,58.039856%,35.293579%);stop-opacity:1;" id="stop442" /> 
<stop offset="0.632812" style="stop-color:rgb(0%,56.471252%,37.254333%);stop-opacity:1;" id="stop446" /> 
<stop offset="0.640625" style="stop-color:rgb(0%,55.2948%,39.215088%);stop-opacity:1;" id="stop450" /> 
<stop offset="0.648438" style="stop-color:rgb(0%,53.726196%,41.175842%);stop-opacity:1;" id="stop454" /> 
<stop offset="0.65625" style="stop-color:rgb(0%,52.157593%,43.136597%);stop-opacity:1;" id="stop458" /> 
<stop offset="0.664062" style="stop-color:rgb(0%,50.588989%,44.313049%);stop-opacity:1;" id="stop462" /> 
<stop offset="0.671875" style="stop-color:rgb(0%,49.411011%,45.881653%);stop-opacity:1;" id="stop466" /> 
<stop offset="0.679687" style="stop-color:rgb(0%,47.842407%,47.058105%);stop-opacity:1;" id="stop470" /> 
<stop offset="0.6875" style="stop-color:rgb(0.784302%,46.273804%,48.234558%);stop-opacity:1;" id="stop474" /> 
<stop offset="0.695313" style="stop-color:rgb(0%,44.7052%,49.411011%);stop-opacity:1;" id="stop478" /> 
<stop offset="0.703125" style="stop-color:rgb(2.352905%,43.528748%,50.588989%);stop-opacity:1;" id="stop482" /> 
<stop offset="0.710938" style="stop-color:rgb(1.960754%,41.960144%,51.765442%);stop-opacity:1;" id="stop486" /> 
<stop offset="0.71875" style="stop-color:rgb(3.921509%,40.783691%,52.549744%);stop-opacity:1;" id="stop490" /> 
<stop offset="0.726563" style="stop-color:rgb(3.921509%,39.215088%,53.726196%);stop-opacity:1;" id="stop494" /> 
<stop offset="0.734375" style="stop-color:rgb(5.882263%,38.038635%,54.510498%);stop-opacity:1;" id="stop498" /> 
<stop offset="0.742188" style="stop-color:rgb(6.274414%,36.470032%,55.2948%);stop-opacity:1;" id="stop502" /> 
<stop offset="0.75" style="stop-color:rgb(7.843018%,34.901428%,56.079102%);stop-opacity:1;" id="stop506" /> 
<stop offset="0.757812" style="stop-color:rgb(8.627319%,32.940674%,56.863403%);stop-opacity:1;" id="stop510" /> 
<stop offset="0.765625" style="stop-color:rgb(10.195923%,31.37207%,57.647705%);stop-opacity:1;" id="stop514" /> 
<stop offset="0.773438" style="stop-color:rgb(10.588074%,29.803467%,58.039856%);stop-opacity:1;" id="stop518" /> 
<stop offset="0.78125" style="stop-color:rgb(12.156677%,27.842712%,58.824158%);stop-opacity:1;" id="stop522" /> 
<stop offset="0.789062" style="stop-color:rgb(12.548828%,26.274109%,59.216309%);stop-opacity:1;" id="stop526" /> 
<stop offset="0.796875" style="stop-color:rgb(13.33313%,25.097656%,60.392761%);stop-opacity:1;" id="stop530" /> 
<stop offset="0.804688" style="stop-color:rgb(15.293884%,25.097656%,60.392761%);stop-opacity:1;" id="stop534" /> 
<stop offset="0.8125" style="stop-color:rgb(17.64679%,25.097656%,60.392761%);stop-opacity:1;" id="stop538" /> 
<stop offset="0.820312" style="stop-color:rgb(19.999695%,25.097656%,60.392761%);stop-opacity:1;" id="stop542" /> 
<stop offset="0.828125" style="stop-color:rgb(21.960449%,25.097656%,60.392761%);stop-opacity:1;" id="stop546" /> 
<stop offset="0.835938" style="stop-color:rgb(23.921204%,25.097656%,60.00061%);stop-opacity:1;" id="stop550" /> 
<stop offset="0.84375" style="stop-color:rgb(25.489807%,25.097656%,60.00061%);stop-opacity:1;" id="stop554" /> 
<stop offset="0.851562" style="stop-color:rgb(27.058411%,25.097656%,60.00061%);stop-opacity:1;" id="stop558" /> 
<stop offset="0.859375" style="stop-color:rgb(28.234863%,25.097656%,60.00061%);stop-opacity:1;" id="stop562" /> 
<stop offset="0.867187" style="stop-color:rgb(29.803467%,25.097656%,60.00061%);stop-opacity:1;" id="stop566" /> 
<stop offset="0.875" style="stop-color:rgb(31.37207%,25.097656%,60.00061%);stop-opacity:1;" id="stop570" /> 
<stop offset="0.882813" style="stop-color:rgb(32.548523%,25.097656%,60.00061%);stop-opacity:1;" id="stop574" /> 
<stop offset="0.890625" style="stop-color:rgb(34.117126%,25.097656%,60.00061%);stop-opacity:1;" id="stop578" /> 
<stop offset="0.898438" style="stop-color:rgb(35.293579%,25.097656%,60.00061%);stop-opacity:1;" id="stop582" /> 
<stop offset="0.90625" style="stop-color:rgb(36.862183%,25.097656%,60.00061%);stop-opacity:1;" id="stop586" /> 
<stop offset="0.914063" style="stop-color:rgb(38.038635%,25.097656%,60.00061%);stop-opacity:1;" id="stop590" /> 
<stop offset="0.921875" style="stop-color:rgb(39.215088%,25.097656%,60.00061%);stop-opacity:1;" id="stop594" /> 
<stop offset="0.929688" style="stop-color:rgb(40.391541%,25.097656%,60.00061%);stop-opacity:1;" id="stop598" /> 
<stop offset="0.9375" style="stop-color:rgb(41.567993%,24.705505%,60.00061%);stop-opacity:1;" id="stop602" /> 
<stop offset="0.945313" style="stop-color:rgb(43.136597%,25.097656%,60.00061%);stop-opacity:1;" id="stop606" /> 
<stop offset="0.953125" style="stop-color:rgb(44.313049%,25.097656%,60.00061%);stop-opacity:1;" id="stop610" /> 
<stop offset="0.960938" style="stop-color:rgb(45.489502%,25.097656%,59.608459%);stop-opacity:1;" id="stop614" /> 
<stop offset="0.96875" style="stop-color:rgb(46.665955%,25.097656%,59.608459%);stop-opacity:1;" id="stop618" /> 
<stop offset="0.976562" style="stop-color:rgb(47.842407%,25.097656%,59.608459%);stop-opacity:1;" id="stop622" /> 
<stop offset="0.984375" style="stop-color:rgb(49.01886%,25.097656%,59.608459%);stop-opacity:1;" id="stop626" /> 
<stop offset="0.992188" style="stop-color:rgb(49.803162%,24.705505%,59.608459%);stop-opacity:1;" id="stop630" /> 
<stop offset="1" style="stop-color:rgb(49.803162%,24.705505%,59.608459%);stop-opacity:1;" id="stop632" /></linearGradient> 
<clipPath id="clip13"> 
<path d="m 60.796875,33.789062 h 3.351563 c 0,0 -1.746094,4.535157 -2.09375,5.648438 -2.160157,6.90625 -2.96875,13.003906 -3.347657,20.289062 h -1.1875 c 0.257813,-8.386718 1.519531,-14.1875 2.652344,-22.101562 0.136719,-0.976562 0.625,-3.835938 0.625,-3.835938" id="path1708" /></clipPath> 
<clipPath id="clip15"> 
<path d="m 53.71875,33.824219 h 5.476562 c 0,0 -0.699218,3.976562 -0.90625,5.335937 C 57.140625,46.617188 56.75,52.402344 56.230469,59.726562 H 44.902344 C 44.375,52.402344 43.988281,46.617188 42.839844,39.160156 42.632812,37.800781 41.9375,33.824219 41.9375,33.824219 Z m 0,0" id="path2225" /></clipPath> 
<clipPath id="clip17"> 
<path d="M 43.609375,59.726562 H 42.425781 C 42.042969,52.441406 41.234375,46.34375 39.078125,39.4375 c -0.347656,-1.113281 -2.09375,-5.648438 -2.09375,-5.648438 h 3.347656 c 0,0 0.488281,2.859376 0.628907,3.835938 1.128906,7.914062 2.394531,13.714844 2.648437,22.101562" id="path2738" /></clipPath> 
<linearGradient xlink:href="#linear0" id="rainbow" gradientUnits="userSpaceOnUse" gradientTransform="matrix(-0.250125,25.512733,-25.512733,-0.250125,60.958725,33.998794)" x1="-0.0094865598" y1="0" x2="1.00967" y2="0" /></defs> 
<g id="street-lammp" clip-path="url(#clip11)" transform="translate(-0.425781,-0.175781)"> 
<path id="post-armature-fixture" style="stroke:#000000;stroke-width:0.264583;stroke-linecap:round;stroke-linejoin:round" d="m 15.177068,76.375901 h 9.260416 V 108.05976 H 15.177068 Z M 20.281496,3.1089678 c 0,0 0.171874,0.734376 0.3125,0.941407 0.140624,0.210937 0.695312,0.941406 0.835937,1.113281 0.140625,0.175781 0.316406,0.453125 0.316406,0.804688 0,0.347656 -0.140625,0.589843 -0.347656,0.90625 -0.210937,0.3125 -0.664063,0.519531 -0.664063,0.519531 h -0.05469 v 1.449219 c 0.664063,0.00781 1.238281,0.039062 1.542969,0.085937 0.414062,0.074219 0.832031,0.492187 0.902344,0.910156 0.167968,1.0000002 -1.074219,2.4882812 -2.027344,3.5468752 v 0.851563 c 0.53125,0.332031 0.917968,0.882812 1.039062,1.53125 2.371094,0.0625 4.296875,1.996093 4.355469,4.367187 0.195313,0.132813 0.324219,0.355469 0.324219,0.609375 v 1.167969 c 0,0.179688 -0.0625,0.34375 -0.171875,0.476562 h 0.492187 c 0.359375,-3.707031 1.152344,-6.871093 2.269532,-9.542968 1.65625,-3.9726562 4.015624,-6.8750002 6.730468,-8.8867192 2.734375,-2.019531 5.800782,-3.13281296 8.859375,-3.50781296 3.5,-0.425781 6.992188,0.109376 9.9375,1.33593796 2.257813,0.941406 3.902344,2.289062 4.941407,3.800781 0.746093,1.089844 1.183593,2.269531 1.324218,3.453125 0.140625,1.1953132 -0.02734,2.3945322 -0.492187,3.5117192 -0.558594,1.339844 -1.539063,2.554687 -2.925781,3.507813 -1.039063,0.714843 -2.875,1.375 -5.199219,1.628906 v 1.316409 c 0.949219,0.03125 1.628906,0.09375 1.605469,0.1875 -0.277344,0.957031 1.453124,2.726562 2.300781,3.066406 v 1.425782 l -0.121094,-0.06641 10.777344,6.21875 v 1.378907 l 2.070312,0.558593 0.292969,1.078125 h -3.363278 c -2.902344,7.589847 -6.40625,20.707035 -5.824219,28.308597 h 0.4375 c 0,0 0.800781,0.90625 1.289062,0.941406 0.488282,0.03516 -0.03516,0.730469 -0.03516,0.730469 h -1.445312 v 1.328125 h -0.671875 l -7.269531,4.195312 h -0.386719 v 0.550782 h 0.06641 c 0.425781,0 0.765625,0.34375 0.765625,0.765625 0,0.421875 -0.339844,0.761719 -0.765625,0.761719 H 51.76587 c -0.03125,0.609374 0.554688,1.386718 0.949219,1.921874 h 0.597657 c -0.824219,6.304688 -4.40625,6.304688 -5.230469,0 h 0.597656 c 0.394531,-0.535156 0.988281,-1.3125 0.953125,-1.921874 h -0.542969 c -0.421875,0 -0.765625,-0.339844 -0.765625,-0.761719 0,-0.421875 0.34375,-0.765625 0.765625,-0.765625 h 0.07031 v -0.550782 h -0.386716 l -7.269531,-4.195312 h -0.671875 v -1.328125 h -1.449219 c 0,0 -0.519531,-0.695313 -0.03516,-0.730469 0.492187,-0.03516 1.292968,-0.941406 1.292968,-0.941406 h 0.4375 c 0.57813,-7.609375 -2.925777,-20.714844 -5.82812,-28.308594 h -3.355469 l 0.285156,-1.078125 2.078125,-0.558593 V 29.83944 l 10.652344,-6.148437 0.121094,-0.07031 -0.121094,0.06641 v -1.425782 c 0.84375,-0.339844 2.574218,-2.109375 2.300781,-3.066406 -0.02734,-0.09375 0.65625,-0.15625 1.605469,-0.1875 v -1.289062 c -2.1875,-0.203126 -4.609375,-0.816407 -7.140625,-1.902344 -0.05078,-0.01953 -0.07422,-0.03906 -0.09375,-0.0625 -1.097657,-0.519532 -2.8125,-1.089844 -4.414063,-1.289063 -0.410156,-0.05078 -0.808594,-0.07813 -1.183594,-0.06641 -0.625,0.01172 -1.179687,0.117187 -1.597656,0.359375 -0.464844,0.242188 -0.519531,0.539062 -0.546875,0.707031 -0.07422,0.445313 0.40625,0.84375 0.847657,0.785157 0.4375,-0.05469 0.597656,-0.3125 0.59375,-0.683594 -0.0039,-0.214844 0.132812,-0.582032 0.6875,-0.613282 h 0.02344 c 0.628906,0 1.125,1.367188 0.472656,2.105469 -0.964843,1.09375 -2.609375,1.070313 -3.726562,0.226563 l -0.0039,0.0039 c -0.285156,-0.21875 -0.546874,-0.488281 -0.734374,-0.804688 -0.214844,-0.363281 -0.324219,-0.773437 -0.296876,-1.21875 0.01563,-0.234374 0.07422,-0.472656 0.183594,-0.710937 0.238282,-0.519531 0.707032,-1.035156 1.503906,-1.5 1.101563,-0.632813 2.546876,-0.734375 4.023438,-0.546875 0.328125,0.03906 0.660156,0.09766 0.988281,0.164062 -1.015625,-1.078124 -1.792969,-2.308593 -1.921875,-3.5625002 -0.148437,-1.339843 0.203125,-2.179687 0.78125,-2.667968 0.04297,-0.039063 0.08594,-0.074219 0.128906,-0.105469 0.308594,-0.222656 0.664063,-0.339844 1.023438,-0.378906 0.464844,-0.042969 0.898438,0.035156 1.320312,0.199219 1.214844,0.480468 2.078126,1.722656 1.785157,3.0625 -0.203125,0.9375002 -1.535157,1.3476562 -1.949219,0.9023432 -0.01564,-0.01562 -0.03126,-0.03515 -0.04298,-0.05468 -0.300781,-0.4648442 -0.08594,-0.7968752 0.09375,-0.9257822 0.296875,-0.210937 0.410157,-0.492187 0.199219,-0.875 -0.214843,-0.394531 -0.824218,-0.542968 -1.136718,-0.222656 -0.121093,0.117188 -0.328125,0.339844 -0.246093,0.859375 0.05078,0.480469 0.292968,0.992188 0.648437,1.5039072 0.214844,0.308593 0.472656,0.617187 0.757813,0.914062 0.679687,0.714844 1.492187,1.371094 2.265624,1.90625 2.40625,1.113281 4.714844,1.675781 6.765626,1.867188 0.171874,-0.535157 0.667968,-0.917969 1.257812,-0.917969 h 1.128906 c 0.578125,0 1.070313,0.371093 1.246094,0.886719 1.738281,-0.203126 3.058594,-0.667969 3.789062,-1.171876 0.949219,-0.648437 1.613282,-1.464843 1.976563,-2.34375 0.292969,-0.699218 0.398437,-1.453124 0.3125,-2.2070312 -0.08984,-0.765625 -0.382813,-1.539062 -0.878906,-2.261719 -0.765625,-1.117187 -2.019531,-2.125 -3.78125,-2.863281 -2.542969,-1.054687 -5.570313,-1.515625 -8.613281,-1.144531 -2.636719,0.320312 -5.273438,1.273438 -7.609376,3.003906 -0.109374,0.078125 -0.214843,0.160156 -0.324218,0.246094 -2.214844,1.730469 -4.152344,4.1953122 -5.546875,7.5351562 -0.07813,0.195313 -0.15625,0.390625 -0.234375,0.59375 -0.871094,2.253906 -1.5,4.894532 -1.816406,7.941406 h 0.203124 c 0.292969,0 0.53125,0.234376 0.53125,0.523438 v 2.988281 c 0,0.292969 -0.238281,0.53125 -0.53125,0.53125 h -0.429687 c -0.02734,2.457031 0.125,5.132813 0.480469,8.046875 0.242187,1.964844 0.582031,3.746094 0.921875,5.5 0.292969,1.554688 0.722656,3.089844 1.070312,4.699219 0.355469,1.609375 0.632813,3.292969 0.632813,5.160156 l 0.07813,1.15625 c 0.01953,0.253907 0.07031,0.542969 0.15625,0.832031 0.1875,0.628907 0.550781,1.242188 1.132812,1.445313 0.394531,0.140625 0.964844,0.0039 1.28125,-0.277344 0.800776,-0.714843 -0.07813,-1.863281 -0.82813,-1.371093 -0.09766,0.04297 -0.320312,0.355468 -0.640625,0.378906 -0.203125,0.01563 -0.402343,-0.109375 -0.488281,-0.292969 -0.02734,-0.0625 -0.04297,-0.125 -0.04297,-0.199219 -0.0078,-0.222656 0.160157,-0.53125 0.484375,-0.734375 1.492188,-0.9375 2.792969,0.3125 2.847656,1.566407 0.05469,1.472656 -1.6875,2.324218 -2.917968,1.894531 -0.429688,-0.152344 -0.765625,-0.394531 -1.03125,-0.703125 -0.148438,0.695312 -0.523438,1.523437 -1.226563,2.089844 -0.02734,0.01562 -0.09375,0.01562 -0.121093,0 -0.703126,-0.566407 -1.078126,-1.390626 -1.222657,-2.085938 -0.230469,0.269531 -0.519531,0.488281 -0.882812,0.644531 -0.726563,0.308594 -1.625,0.171875 -2.257813,-0.320312 -0.425781,-0.332031 -0.632812,-0.894531 -0.632812,-1.46875 0,-0.683594 0.292968,-1.367188 0.875,-1.675781 0.496094,-0.261719 1.214844,-0.246094 1.707031,0.01562 0.339844,0.179688 0.527344,0.480469 0.535156,0.703126 0.0039,0.04297 0,0.08594 -0.01563,0.132812 -0.04297,0.226562 -0.253906,0.398438 -0.480468,0.394531 -0.183594,-0.0039 -0.332032,-0.105469 -0.453126,-0.183593 -1.019525,-0.648434 -1.511712,0.859378 -0.777337,1.324222 0.332031,0.207032 0.78125,0.289063 1.128906,0.140625 0.582031,-0.25 0.90625,-0.921875 1.042969,-1.582031 0.05859,-0.269531 0.08594,-0.542969 0.08984,-0.78125 V 48.78085 c -0.1875,-3 -1.109376,-5.617188 -1.628907,-8.304688 C 28.023679,38.655847 27.664304,36.800378 27.41821,34.796471 27.051023,31.780847 26.898679,28.99569 26.926023,26.43319 h -0.632809 v 29.566407 h -1.003906 c -0.273438,0.5625 -0.683594,1.417968 -1.050781,2.714843 v 0.839844 h 0.414062 c 0.289063,0 0.527344,0.238281 0.527344,0.53125 v 0.195313 c 0,0.292968 -0.238281,0.527343 -0.527344,0.527343 h -0.414062 v 1.671875 h 0.171875 c 0.289062,0 0.527344,0.242188 0.527344,0.527344 v 0.34375 c 0,0.289062 -0.238282,0.527344 -0.527344,0.527344 h -0.464844 v 44.144537 c -2.289062,0.69921 -4.601562,1.39062 -6.980469,1.95703 -0.457031,0.0937 -0.90625,0.13672 -1.355469,0.16015 V 63.878503 h -0.464843 c -0.292969,0 -0.527344,-0.238282 -0.527344,-0.527344 v -0.34375 c 0,-0.285156 0.234375,-0.527344 0.527344,-0.527344 h 0.375 V 60.80819 h -0.414063 c -0.289062,0 -0.523437,-0.234375 -0.523437,-0.527343 v -0.195313 c 0,-0.292969 0.234375,-0.53125 0.523437,-0.53125 h 0.414063 V 58.71444 h -0.04297 C 15.105714,57.417565 14.695558,56.562097 14.42212,55.999597 H 13.465089 V 26.43319 H 9.7736828 c -0.289063,0 -0.527344,-0.238281 -0.527344,-0.53125 v -2.988281 c 0,-0.289062 0.238281,-0.523438 0.527344,-0.523438 h 3.1835942 c -0.01172,-0.03125 -0.01563,-0.07031 -0.01563,-0.105468 V 20.74569 c 0,-0.25 0.128906,-0.476562 0.328125,-0.605469 v -0.15625 c 0,-2.324218 1.894531,-4.21875 4.214843,-4.21875 h 0.136719 c 0.125005,-0.644531 0.511724,-1.195312 1.035162,-1.527343 v -0.816407 c -0.949219,-1.058593 -2.191407,-2.550781 -2.023438,-3.5507812 0.07031,-0.417969 0.484375,-0.835937 0.90625,-0.90625 0.3125,-0.050781 0.890625,-0.089843 1.539062,-0.109375 v -1.476562 h -0.05078 c 0,0 -0.453125,-0.210938 -0.664062,-0.519532 -0.207031,-0.316406 -0.347657,-0.5625 -0.347657,-0.910156 0,-0.347656 0.175782,-0.625 0.316407,-0.800781 0.132812,-0.175781 0.695312,-0.910156 0.835937,-1.117187 0.136719,-0.210938 0.308594,-0.9375 0.308594,-0.9375 h 0.703125 l -0.0039,0.015624 z m 0,0 m 24.75,20.5117222 -0.121094,0.07031 v -0.0039 z m 0,0 M 12.722902,92.306884 c -0.09766,-1.72656 0.01563,-1.54687 -0.769532,-3.11328 -0.285156,-0.57422 1.25,0 1.25,0 -0.15625,-1.55078 0.382813,-2.80078 0.992188,-4.16797 h -0.394531 c -0.398438,0 -0.726563,-0.32422 -0.726563,-0.71875 v -3.91797 c 0,-0.39843 0.328125,-0.72656 0.726563,-0.72656 h 0.609375 v -2.72266 c 0,-0.39843 0.324218,-0.72656 0.722656,-0.72656 h 0.476562 v 31.281246 h 8.335938 V 79.662354 h 1.628906 c 0.398438,0 0.726563,0.32813 0.726563,0.72656 v 3.91797 c 0,0.39453 -0.328125,0.71875 -0.726563,0.71875 h -0.394531 c 0.609375,1.36719 1.152344,2.61719 0.996094,4.16797 0,0 1.527343,-0.57422 1.242187,0 -0.785156,1.56641 -0.667968,1.38672 -0.765625,3.11328 0,0 1.578125,-1.00391 1.390625,-0.62109 -0.78125,1.55859 0.367188,2.5039 -1.964844,6.27343 -0.117187,0.1875 -0.179687,0.7461 -0.21875,1.4375 h 0.191407 c 0.398437,0 0.726562,0.32422 0.726562,0.722656 v 1.37891 c 0,0.39843 -0.328125,0.72656 -0.726562,0.72656 H 25.85962 c 0.01563,0.42187 0.04297,0.76562 0.0625,0.95312 h 0.292969 c 0.796875,0 1.445313,0.65625 1.445313,1.45313 v 0.98047 c 0,0.80078 -0.648438,1.44922 -1.445313,1.44922 h -0.01172 c 0.04297,1.76172 0.128907,4.28515 0.25,5.01172 0.429688,2.57421 1.566407,4.75781 3.929688,5.9375 -0.296875,0.41015 -1.351562,1.6875 -2.042969,2.61718 h 4.402344 l 0.285156,1.34375 c 0,0 -1.148437,0.38282 -1.722656,1.14844 -0.394531,0.52734 -0.976563,1.64844 -1.359375,2.54688 v 54.26171 h 1.187501 c 0.398438,0 0.726562,0.32813 0.726562,0.72657 v 1.61718 c 0,0.39844 -0.328124,0.72657 -0.726562,0.72657 h -1.1875 v 1.14843 h 1.300781 c 0.601563,0 1.089844,0.48829 1.089844,1.08594 v 3.4375 l 2.871094,2.57031 3.164062,2.58594 c 0,0 0.765625,1.05078 0.289063,2.19922 -0.332032,0.80078 -1.5,2.84766 -2.179688,4.01953 H 2.8947768 c -0.679688,-1.17187 -1.84375,-3.21875 -2.17968799,-4.01953 -0.476562,-1.14844 0.28515699,-2.19922 0.28515699,-2.19922 l 3.164062,-2.58594 2.875,-2.57031 v -3.4375 c 0,-0.59765 0.488281,-1.08594 1.085938,-1.08594 h 1.304687 v -1.14843 h -1.1875 c -0.398437,0 -0.726563,-0.32813 -0.726563,-0.72657 v -1.61718 c 0,-0.39844 0.328126,-0.72657 0.726563,-0.72657 h 1.1875 v -54.26171 c -0.382813,-0.89844 -0.960937,-2.01953 -1.359375,-2.54687 -0.574219,-0.76563 -1.726562,-1.14844 -1.726562,-1.14844 l 0.292968,-1.34375 h 4.3984382 c -0.695313,-0.92968 -1.7421882,-2.20703 -2.0429692,-2.61718 2.3632812,-1.17969 3.5000002,-3.36329 3.9257812,-5.9375 0.125,-0.72657 0.207032,-3.25 0.253906,-5.01172 H 13.1604 c -0.796875,0 -1.449219,-0.64844 -1.449219,-1.44922 v -0.98047 c 0,-0.79688 0.652344,-1.45313 1.449219,-1.45313 h 0.292968 c 0.01953,-0.1875 0.04297,-0.53125 0.05859,-0.95312 h -0.1914 c -0.398438,0 -0.722656,-0.32813 -0.722656,-0.72656 v -1.37892 c 0,-0.398436 0.324218,-0.722656 0.722656,-0.722656 h 0.191406 c -0.03125,-0.6914 -0.09766,-1.25 -0.214844,-1.4375 -2.332031,-3.76953 -1.183593,-4.71484 -1.964843,-6.27343 -0.191407,-0.38282 1.390625,0.62109 1.390625,0.62109 M 25.14087,76.939694 v 2.72266 h -1.195312 v -3.44922 h 0.472656 c 0.394532,0 0.722656,0.32813 0.722656,0.72656" /> 
<g id="light" transform="translate(-40.216667,-9.5250003)"> 
<g clip-path="url(#clip13)" clip-rule="nonzero" id="rightRainbowGradient" transform="translate(40.216667,9.525)"> 
<path style="color:#000000;fill:url(#rainbow);-inkscape-stroke:none" d="m 64.402344,33.789062 -6.878906,-0.06641 -0.257813,26 6.878906,0.07031 z m 0,0" id="path21460" /></g> 
<g clip-path="url(#clip15)" clip-rule="nonzero" id="middleRainbowGradient" transform="translate(40.216667,9.525)"> 
<path style="color:#000000;fill:url(#rainbow);-inkscape-stroke:none" d="M 59.449219,33.828125 41.9375,33.65625 41.683594,59.722656 59.191406,59.894531 Z m 0,0" id="path21466" /></g> 
<g clip-path="url(#clip17)" clip-rule="nonzero" id="leftRainbowGradient" transform="translate(40.216667,9.525)"> 
<path style="color:#000000;fill:url(#rainbow);-inkscape-stroke:none" d="m 43.867188,33.789062 -6.882813,-0.06641 -0.253906,26 6.878906,0.07031 z m 0,0" id="path21474" /></g></g></g> 
<metadata id="metadata17140"> 
<rdf:RDF> 
<cc:Work rdf:about=""> 
<dc:title>Street LAMMP Logo</dc:title> 
<dc:creator> 
<cc:Agent> 
<dc:title>Anthony Redgrave</dc:title></cc:Agent></dc:creator> 
<dc:publisher> 
<cc:Agent> 
<dc:title>LAMMP by TDTF</dc:title></cc:Agent></dc:publisher> 
<dc:description>Ornate streen lantern, with the lantern glass colored like a rainbow.</dc:description></cc:Work></rdf:RDF>
</metadata>
</svg> 
